<svg width="772" height="579" viewBox="0 0 772 579" fill="none" xmlns="http://www.w3.org/2000/svg"><path d="M656.972 467.591c-3.281-4.101-5.742-8.733-7.816-13.51-1.014-2.364-1.979-4.825-2.895-7.238-.435-1.158-.917-2.267-1.255-3.425-.386-1.207-.531-1.834.048-2.992 0-.82.338-1.158.965-1.061.531-.145.869.096 1.062.723.482-.048.965-.144 1.399-.193a119.44 119.44 0 01-5.597-26.875 124.047 124.047 0 01-.434-13.413c.048-2.075.145-4.15.338-6.273.048-.82-.049-3.136.434-3.812.531-.144 1.013-.289 1.544-.386.868-.723 1.544-.723 1.978.049.531.434.869 1.206 1.206 1.785 8.83 14.668 14.717 31.218 17.563 48.057a138.846 138.846 0 011.834 29.336c-.048.917 1.399.917 1.447 0 .772-19.541-2.46-39.179-9.553-57.418a149.797 149.797 0 00-5.983-13.317c-1.013-2.026-2.123-4.004-3.233-5.934-.917-1.593-1.833-3.523-3.377-4.584-2.992-2.027-4.729.868-5.067 3.522-.627 5.018-.723 10.133-.579 15.199a120.675 120.675 0 006.032 34.402c.241.772 1.447.676 1.399-.193 0-1.93-2.171-2.75-3.812-1.93-2.895 1.399-1.254 5.404-.482 7.527 2.991 8.106 6.224 16.116 11.676 22.919.724.82 1.737-.241 1.158-.965z" fill="#E8E8E8"/><path d="M665.464 431.5c.386-6.417 1.206-12.786 2.606-19.107.675-2.943 1.399-5.887 2.316-8.782.434-1.447.916-2.895 1.399-4.294.241-.724.482-1.447.772-2.123.096-.289.193-.579.338-.868.193-1.014.868-1.593 1.978-1.786-.097.821 1.206.965 1.399.193.965-3.184 8.782-23.69 13.558-20.168 1.4 1.013 1.786 3.377 2.027 4.97.386 2.219.724 4.487.965 6.706.434 3.812.724 7.624.82 11.484a134.11 134.11 0 01-6.948 46.368c-2.895 8.54-6.658 16.695-11.194 24.463-.482.82.772 1.544 1.255.724 9.119-15.537 14.957-32.81 17.273-50.615 1.158-8.974 1.448-18.045.772-27.068-.338-4.294-.82-8.588-1.592-12.834-.434-2.316-1.496-5.742-4.246-6.176-3.619-.579-6.417 5.404-7.865 7.816-2.654 4.391-4.68 9.071-6.176 13.944.483.049.965.145 1.399.193.29-2.316-2.605-2.46-3.763-.965-.869 1.11-1.255 2.751-1.689 4.053-.82 2.268-1.544 4.584-2.219 6.9-2.558 8.782-4.053 17.804-4.584 26.924-.097.965 1.351.965 1.399.048zM642.787 388.992a254.884 254.884 0 0119.541 77.248c.096.917 1.544.917 1.447 0a258.488 258.488 0 00-19.734-78.02c-.386-.821-1.64-.049-1.254.772z" fill="#E8E8E8"/><path d="M642.497 420.788a65.71 65.71 0 0113.848 9.313c.675.627 1.737-.386 1.013-1.014-4.342-3.763-9.023-6.948-14.185-9.553-.772-.386-1.544.868-.676 1.254zM655.911 406.651a34.126 34.126 0 00-2.992 8.396c-.193.916 1.206 1.302 1.399.386.628-2.799 1.544-5.501 2.847-8.058.434-.82-.82-1.544-1.254-.724zM687.466 375.675c-3.136 28.033-6.562 56.983-20.217 82.169-.434.821.821 1.544 1.255.724 13.799-25.428 17.225-54.571 20.41-82.893.096-.917-1.351-.917-1.448 0z" fill="#E8E8E8"/><path d="M669.421 403.129c3.86 9.071 6.706 18.479 8.588 28.129.193.917 1.592.531 1.399-.386-1.93-9.794-4.873-19.3-8.733-28.467-.386-.869-1.592-.145-1.254.724zM683.944 410.414c3.619-4.583 7.237-9.167 10.856-13.703.579-.723-.434-1.737-1.013-1.013-3.619 4.584-7.238 9.168-10.856 13.703-.579.676.434 1.737 1.013 1.013zM84.341 461.174c-3.136-3.378-6.32-6.852-8.878-10.712-1.206-1.882-2.316-3.812-3.184-5.886-.483-1.158-2.75-7.334.386-6.08.771.29 1.11-.724.723-1.206-3.184-4.053-5.307-8.782-7.14-13.558a466.626 466.626 0 01-5.019-13.703c-1.737-5.019-3.233-10.181-3.812-15.441-.434-4.149-.868-9.843 2.123-13.268 4.391-4.97 8.83 3.233 10.905 6.321a434.374 434.374 0 018.203 12.641c5.259 8.637 10.035 17.611 13.558 27.165 4.004 10.904 6.224 22.436 5.693 34.064-.048.917 1.4.917 1.448 0 1.061-23.546-9.023-45.499-21.327-64.993-3.04-4.776-6.08-9.601-9.408-14.185-1.882-2.557-4.874-5.211-8.251-3.522-3.088 1.495-4.246 5.5-4.536 8.637-.53 5.693.58 11.483 2.123 16.935 1.737 6.176 4.102 12.159 6.321 18.142 2.075 5.597 4.39 11.05 8.106 15.778.241-.386.483-.82.724-1.206-1.255-.483-2.365-.338-3.426.434-.193.145-.386.386-.338.627 1.062 9.747 7.672 17.226 14.041 24.077.579.676 1.592-.338.965-1.061z" fill="#E8E8E8"/><path d="M88.297 415.288c-1.495-13.51.29-27.068 5.212-39.758-.386.096-.82.193-1.207.338 1.496 1.351 2.51 2.895 3.088 4.825.193.675 1.207.723 1.4 0 3.28-11.387 8.057-22.244 14.33-32.328a11.905 11.905 0 01-1.303-.193c3.764 9.602 6.128 19.734 6.9 30.06.675 9.264.917 19.927-4.729 27.792-.289.386 0 .965.434 1.061 4.343 1.014 3.04 7.865 2.654 10.953a147.712 147.712 0 01-2.557 15.247c-2.123 9.698-5.211 19.204-9.119 28.323-.386.868.868 1.592 1.254.724a158.735 158.735 0 0010.181-33.052c.965-5.211 2.075-10.711 2.171-16.019.049-3.039-.724-6.851-4.149-7.623.144.338.289.724.434 1.061 5.645-7.864 5.549-18.383 4.97-27.647-.676-10.76-3.088-21.326-6.996-31.314-.242-.579-.966-.724-1.303-.193-6.321 10.181-11.146 21.133-14.475 32.665h1.399c-.675-2.171-1.785-3.908-3.474-5.452-.434-.386-1.013-.193-1.206.338a85.06 85.06 0 00-5.26 40.144c0 .965 1.448.965 1.352.048zM60.071 381.079c6.707 13.268 13.558 26.489 19.976 39.902 6.272 13.221 11.821 26.875 14.813 41.254.192.917 1.592.531 1.399-.386-2.992-14.234-8.396-27.696-14.62-40.82-6.465-13.703-13.51-27.164-20.361-40.722-.386-.772-1.641-.049-1.207.772z" fill="#E8E8E8"/><path d="M110.107 350.199c-1.014 14.33-5.453 28.033-8.734 41.929a297.794 297.794 0 00-6.803 42.267c-.096.917 1.351.917 1.448 0a296.434 296.434 0 017.189-43.666c3.281-13.414 7.334-26.683 8.347-40.53.048-.965-1.399-.965-1.447 0zM59.3 408.726c7.285 2.461 13.944 6.224 19.878 11.146.724.579 1.737-.435 1.014-1.014a65.7 65.7 0 00-20.507-11.531c-.916-.338-1.303 1.061-.386 1.399z" fill="#E8E8E8"/><path d="M91.868 376.688a151.859 151.859 0 007.19 25.621c.337.868 1.736.482 1.398-.386-3.136-8.348-5.5-16.888-7.189-25.621-.193-.917-1.544-.531-1.399.386zM97.079 437.579c5.211-6.851 10.567-13.751 18.19-18.045.82-.435.097-1.689-.724-1.255-7.816 4.439-13.365 11.532-18.72 18.576-.531.724.723 1.448 1.254.724z" fill="#E8E8E8"/><path d="M598.879 470.196h121.783c1.882 0 1.882-2.895 0-2.895H598.879c-1.882 0-1.882 2.895 0 2.895zM158.115 460.546H62.58c-1.881 0-1.881 2.895 0 2.895h95.535c1.834 0 1.834-2.895 0-2.895zM482.452 493.742h169.599c1.881 0 1.881-2.895 0-2.895H482.452c-1.834 0-1.882 2.895 0 2.895z" fill="#000"/><path d="M586.624 470.968l-421.223-8.395c-25.138-.483-42.701-25.042-35.078-48.974l86.706-272.806c4.921-15.488 19.299-26.103 35.56-26.199 129.937-.917 259.874-1.882 389.811-2.799 23.739-.193 41.737 21.471 37.153 44.776l-55.343 284c-3.426 17.949-19.3 30.783-37.586 30.397z" fill="#EC615B" stroke="#000" stroke-width="6" stroke-miterlimit="10"/><path d="M583.922 468.604c-140.408-2.654-280.815-5.259-421.223-7.913-25.138-.483-42.701-23.643-35.078-46.224l86.706-257.51c4.921-14.62 19.3-24.607 35.56-24.752 129.937-.869 259.874-1.785 389.812-2.654 23.739-.145 41.736 20.265 37.152 42.267l-55.343 268.125c-3.425 16.888-19.3 28.999-37.586 28.661z" fill="#fff" stroke="#000" stroke-width="6" stroke-miterlimit="10"/><path d="M619.916 447.133c-4.632 10.18-13.558 17.852-24.318 20.844-.917.241-.531 1.64.386 1.399 11.097-3.088 20.41-11.049 25.187-21.52.337-.82-.869-1.592-1.255-.723zM256.304 125.257c-1.448-.145-1.978-1.689-1.592-2.943.531-1.593 2.074-1.93 3.522-1.207 1.013.531 1.544 1.786 1.11 2.895-.483 1.207-1.882 1.593-3.04 1.158-.869-.337-1.254 1.062-.386 1.4 1.882.723 4.198-.242 4.873-2.22.676-2.123-.675-4.198-2.702-4.825-2.267-.675-4.246.386-4.825 2.75-.482 2.172.869 4.198 3.04 4.439.917.097.917-1.351 0-1.447z" fill="#000"/><path d="M254.615 124.099c.579 1.496 2.702 1.978 3.957 1.061.82-.627 1.206-1.833.82-2.895-.434-1.158-1.689-1.833-2.798-1.64-1.544.289-2.558 2.075-1.979 3.474z" fill="#fff"/><path d="M272.612 124.823c-1.447-.145-1.978-1.689-1.592-2.943.531-1.593 2.075-1.93 3.522-1.207 1.014.531 1.544 1.786 1.11 2.895-.482 1.207-1.882 1.593-3.04 1.158-.868-.337-1.254 1.062-.386 1.4 1.882.723 4.198-.242 4.874-2.22.675-2.123-.676-4.198-2.702-4.825-2.268-.675-4.246.386-4.825 2.75-.483 2.172.868 4.198 3.039 4.439.917.097.917-1.351 0-1.447z" fill="#000"/><path d="M270.924 123.665c.579 1.495 2.702 1.978 3.956 1.061.82-.627 1.206-1.833.82-2.895-.434-1.158-1.688-1.833-2.798-1.64-1.544.289-2.557 2.074-1.978 3.474z" stroke="#000" stroke-miterlimit="10"/><path d="M255.339 121.107a31.739 31.739 0 002.364 4.343c.483.772 1.737.048 1.255-.724a46.82 46.82 0 01-2.364-4.342c-.386-.821-1.641-.097-1.255.723z" fill="#000"/><path d="M255.484 125.45c.675-.579 1.302-1.206 1.978-1.785.579-.531 1.158-1.158 1.882-1.544.82-.435.096-1.689-.724-1.255-.724.386-1.303 1.013-1.93 1.592-.724.676-1.496 1.351-2.219 2.027-.676.579.337 1.592 1.013.965z" fill="#000"/><path d="M434.684 158.019c-4.294 13.799-8.637 27.647-12.931 41.447-2.654 8.588 3.667 17.273 12.642 17.418 59.878.723 119.708 1.399 179.586 2.123 6.562.096 12.207-4.632 13.365-11.098 2.558-14.668 5.163-29.336 7.72-44.004 1.448-8.202-4.873-15.729-13.22-15.729l-174.376.434c-5.838 0-11.049 3.812-12.786 9.409zM204.918 350.391l-25.042 71.941c-5.163 14.861 7.093 30.012 24.463 30.205 115.896 1.206 231.841 2.46 347.737 3.667 12.738.144 23.691-8.01 25.863-19.252 5.018-25.428 9.987-50.904 15.005-76.332 2.799-14.282-9.457-27.309-25.62-27.309l-337.702.724c-11.339.048-21.327 6.658-24.704 16.356z" fill="#fff" stroke="#000" stroke-width="3" stroke-miterlimit="10"/><path d="M452.826 240.671l-23.304 69.769c-.29.869 1.109 1.255 1.399.386l23.305-69.769c.289-.917-1.11-1.303-1.4-.386z" fill="#E8E8E8"/><path d="M453.743 240.816c20.168-1.062 40.433-2.702 60.65-2.702 20.12 0 40.192 1.737 60.216 3.474.917.096.917-1.351 0-1.448-20.024-1.737-40.096-3.425-60.216-3.474-20.217 0-40.482 1.641-60.65 2.702-.917.049-.965 1.496 0 1.448z" fill="#E8E8E8"/><path d="M574.368 241.539c-5.404 23.064-10.856 46.079-16.26 69.143-.193.916 1.206 1.302 1.399.386 5.404-23.064 10.856-46.079 16.26-69.143.193-.868-1.206-1.254-1.399-.386z" fill="#E8E8E8"/><path d="M430.39 312.949c33.1-1.785 66.247-2.219 99.395-1.206 9.457.29 18.866.676 28.323 1.206.916.049.916-1.399 0-1.447-33.1-1.834-66.247-2.22-99.395-1.206a1108 1108 0 00-28.323 1.206c-.917.048-.965 1.496 0 1.447z" fill="#E8E8E8"/><path d="M494.659 310.489c20.651-10.76 44.245-12.352 67.067-13.751.917-.049.917-1.496 0-1.448-23.063 1.448-46.899 3.088-67.791 13.944-.868.435-.145 1.689.724 1.255z" fill="#E8E8E8"/><path d="M527.614 264.555a170.557 170.557 0 013.474 33.582c0 .916 1.447.916 1.447 0-.096-11.436-1.254-22.774-3.522-33.968-.193-.917-1.592-.531-1.399.386z" fill="#E8E8E8"/><path d="M527.083 264.313c-2.943 4.295-5.838 8.637-8.781 12.931.434.145.916.242 1.351.386-.242-4.342.868-8.395 3.329-11.966.531-.772-.724-1.495-1.255-.723-2.605 3.763-3.811 8.154-3.57 12.689.048.724.917.965 1.351.386 2.943-4.294 5.838-8.636 8.781-12.931.579-.82-.675-1.544-1.206-.772z" fill="#E8E8E8"/><path d="M522.21 263.928c-1.641-.724-3.281-1.062-5.066-.965-1.062.048-5.356 1.351-4.729-.242.241-.627 1.592-1.447 2.123-1.881 1.013-.821 2.075-1.593 3.184-2.22 2.461-1.399 5.211-2.075 8.01-1.64.917.144 1.303-1.255.386-1.4-5.597-.868-11.435 2.172-15.054 6.369-.965 1.11-.82 2.654.772 3.137.869.241 1.834-.097 2.654-.29 2.364-.531 4.68-.724 6.996.29.82.482 1.544-.772.724-1.158z" fill="#E8E8E8"/><path d="M527.035 255.484c1.833-4.343 5.452-7.527 9.939-8.878-.241-.386-.482-.821-.723-1.207-1.641 2.123-2.606 4.439-2.944 7.093-.096.917 1.351.917 1.448 0 .289-2.268 1.158-4.294 2.509-6.079.386-.531.048-1.448-.724-1.207-5.018 1.496-8.926 5.067-10.953 9.892-.289.868 1.11 1.254 1.448.386z" fill="#E8E8E8"/><path d="M534.369 253.361c3.763-2.172 8.202-2.22 12.014-.145v-1.255c-3.04 1.448-5.935 3.185-8.685 5.115-.772.531-.048 1.785.724 1.255 2.75-1.93 5.645-3.668 8.685-5.115.482-.241.434-1.013 0-1.255-4.294-2.364-9.264-2.316-13.462.145-.82.483-.096 1.737.724 1.255z" fill="#E8E8E8"/><path d="M537.167 258.427c3.137 1.737 6.176 4.584 5.308 8.54.434-.048.868-.096 1.303-.193-2.027-3.232-5.501-5.066-9.313-4.921-.917.048-.917 1.496 0 1.447 3.329-.144 6.321 1.4 8.058 4.198.29.483 1.206.482 1.303-.193.965-4.584-2.22-8.106-5.983-10.181-.772-.386-1.496.869-.676 1.303z" fill="#E8E8E8"/><path d="M533.211 263.059a145 145 0 012.412 35.078c-.048.917 1.399.917 1.448 0a145.732 145.732 0 00-2.461-35.464c-.193-.917-1.592-.531-1.399.386z" fill="#E8E8E8"/><path d="M531.618 285.785c1.593.193 3.088-.097 4.536-.724.869-.386.096-1.64-.724-1.254-1.206.579-2.509.723-3.812.53-.916-.144-.916 1.303 0 1.448zM436.662 293.215c7.913.483 15.923.627 23.788 1.544 3.86.434 7.575 1.592 11.387 2.171 3.715.531 7.334 0 11.049-.675 16.26-2.847 32.617-1.303 48.877.434.917.097.917-1.351 0-1.447-15.729-1.689-31.7-3.33-47.43-.724-4.439.724-8.636 1.592-13.124.82-3.618-.627-7.092-1.592-10.711-2.026-7.865-.917-15.874-1.062-23.787-1.544-.965-.097-.965 1.351-.049 1.447zM529.93 275.797c.193.82 1.013 1.013 1.785.868 1.496-.241 3.04-.772 4.487-1.206.917-.241.531-1.64-.386-1.399-.868.241-1.737.482-2.605.675-.386.097-.82.193-1.206.338l-.579.145c-.338-.048-.338 0-.097.145-.193-.869-1.592-.483-1.399.434zM468.797 257.366c-4.777-1.544 1.447-9.747 4.777-6.08 1.206 1.303 1.158 3.571.048 4.922-1.255 1.544-3.426 1.785-5.114.82-.821-.483-1.544.772-.724 1.254 2.46 1.4 5.79.869 7.334-1.592 1.399-2.268 1.013-5.79-1.448-7.189-5.355-2.992-11.773 7.189-5.211 9.312.869.241 1.255-1.158.338-1.447zM580.351 245.737a348.361 348.361 0 0146.368 5.549c.917.193 1.303-1.206.386-1.399a345.46 345.46 0 00-46.754-5.646c-.917 0-.917 1.448 0 1.496zM580.11 249.935a3403.447 3403.447 0 0144.583 5.066c.917.097.917-1.351 0-1.447a3499.655 3499.655 0 00-44.583-5.067c-.917-.096-.917 1.351 0 1.448zM579.627 254.277c8.975 1.496 17.997 2.461 27.068 2.751.917.048.917-1.4 0-1.448-8.926-.338-17.852-1.206-26.682-2.702-.916-.145-1.302 1.255-.386 1.399zM574.223 280.284a784.93 784.93 0 0036.718 4.343c.917.096.917-1.351 0-1.448a828.458 828.458 0 01-36.332-4.294c-.917-.145-1.303 1.255-.386 1.399zM573.306 284.434a543.203 543.203 0 0029.144 4.246c.916.096.916-1.351 0-1.448a479.918 479.918 0 01-28.758-4.198c-.916-.193-1.302 1.207-.386 1.4zM572.293 290.562c12.159 2.412 24.415 4.053 36.767 4.825.917.048.917-1.4 0-1.448a288.566 288.566 0 01-36.381-4.777c-.917-.193-1.303 1.207-.386 1.4zM225.81 352.659c22.195 1.11 44.486-.048 66.681-.386s44.342-.434 66.537-.386c44.535.097 89.021.917 133.556 1.93 25.09.579 50.132 1.255 75.222 1.882.917.048.917-1.399 0-1.448-44.487-1.157-89.021-2.364-133.556-3.087-44.535-.724-89.021-1.062-133.556-.483-24.945.29-49.987 1.785-74.884.483-.965 0-.965 1.447 0 1.495z" fill="#E8E8E8"/><path d="M224.942 182.723c2.895.434 4.921-1.544 10.663-5.79 8.637-6.417 10.47-6.61 11.773-6.514.627.048 1.785.241 7.237 4.343 7.962 5.983 8.444 7.816 11.05 7.961 4.728.193 5.404-5.79 11.049-6.321 5.114-.482 6.707 4.198 13.027 3.956 4.874-.144 7.72-3.136 8.155-2.508.53.82-4.053 7.141-10.664 8.154-4.873.724-5.934-2.123-10.663-1.448-6.562.965-7.816 6.948-12.641 6.514-2.847-.289-3.233-2.412-8.155-5.79-2.605-1.785-7.141-4.873-12.11-5.259-9.12-.676-13.848 8.154-19.349 5.597-2.654-1.206-4.149-4.487-3.812-4.873.242-.386 1.931 1.592 4.44 1.978z" fill="#5222D0"/><path d="M450.993 157.97a417.8 417.8 0 01-10.808 39.614c-.29.868 1.11 1.254 1.399.386a417.8 417.8 0 0010.808-39.614c.193-.916-1.206-1.302-1.399-.386z" fill="#E8E8E8"/><path d="M441.053 198.693c4.97.579 9.94.338 14.958.242 5.211-.145 10.422-.242 15.681-.386 10.422-.242 20.892-.531 31.314-.772.917 0 .917-1.448 0-1.448-10.422.241-20.892.531-31.314.772-5.066.145-10.133.241-15.199.386-5.163.145-10.277.386-15.44-.193-.916-.145-.916 1.303 0 1.399z" fill="#E8E8E8"/><path d="M459.002 171.432a429.114 429.114 0 00-4.68 25.91c-.145.917 1.254 1.303 1.399.386a428.338 428.338 0 014.681-25.91c.193-.917-1.207-1.303-1.4-.386z" fill="#E8E8E8"/><path d="M460.112 172.204c2.557.145 5.066.386 7.575.869-.144-.29-.337-.579-.482-.869a310.586 310.586 0 00-5.79 24.704c-.193.917 1.206 1.303 1.399.386a310.586 310.586 0 015.79-24.704c.097-.338-.096-.82-.482-.868a62.804 62.804 0 00-7.962-.917c-1.013-.097-1.013 1.351-.048 1.399zM472.561 179.635a212.793 212.793 0 01-2.895 17.466c-.193.917 1.206 1.303 1.399.386 1.254-5.886 2.219-11.869 2.943-17.852.097-.917-1.351-.917-1.447 0z" fill="#E8E8E8"/><path d="M473.284 179.731a76.796 76.796 0 018.155.145 10.81 10.81 0 01-.676-.917 348.181 348.181 0 00-2.75 17.274c-.145.917 1.303.917 1.447 0 .772-5.645 1.641-11.242 2.702-16.888.097-.482-.193-.868-.675-.916-2.702-.193-5.453-.193-8.155-.145-1.013 0-1.013 1.447-.048 1.447zM490.172 166.511c-1.689 10.084-3.667 20.168-5.839 30.156-.193.917 1.207 1.303 1.4.386 2.171-9.988 4.149-20.072 5.838-30.156.193-.917-1.206-1.303-1.399-.386z" fill="#E8E8E8"/><path d="M491.33 165.787v.241c0 .386.337.724.723.724a.743.743 0 00.724-.724v-.241a.743.743 0 00-.724-.724c-.386.048-.723.338-.723.724z" fill="#E8E8E8"/><path d="M491.668 166.993c2.219.483 4.342.724 6.61.676a11.14 11.14 0 01-.676-.917c-1.881 10.084-3.618 20.217-5.259 30.349-.145.917 1.255 1.303 1.399.386 1.641-10.132 3.378-20.265 5.259-30.349.097-.434-.192-.917-.675-.917-2.123 0-4.149-.193-6.224-.627-.965-.193-1.351 1.158-.434 1.399zM513.718 163.712a1285.32 1285.32 0 0149.166.338c.917 0 .917-1.448 0-1.448a1517.655 1517.655 0 00-49.166-.337c-.917 0-.917 1.447 0 1.447zM514.827 169.599c10.181.675 20.41.53 30.591-.435.917-.096.917-1.544 0-1.447a190.454 190.454 0 01-30.591.434c-.916-.048-.916 1.399 0 1.448zM512.608 176.884c13.992-.241 27.985 0 41.977.724.917.048.917-1.399 0-1.447a553.512 553.512 0 00-41.977-.724c-.917 0-.917 1.447 0 1.447zM587.685 199.272c-4.921-.627-7.286-5.548-8.685-9.746-1.303-3.957-1.785-8.106-.289-12.063 2.605-6.948 9.698-12.545 16.839-14.137 7.43-1.689 14.957 2.268 18.528 8.878 3.763 6.948 2.46 15.874-1.93 22.195-5.404 7.768-16.791 8.637-24.704 4.536-.82-.435-1.544.82-.724 1.254 7.575 3.908 18.045 3.715 24.463-2.412 6.272-5.983 8.299-16.647 5.018-24.56-3.137-7.478-11.05-12.689-19.252-11.628-8.106 1.062-16.26 7.238-19.348 14.813-2.075 5.163-1.206 10.567.82 15.585 1.737 4.246 4.487 8.106 9.312 8.733.869.096.869-1.351-.048-1.448z" fill="#E8E8E8"/><path d="M589.711 165.256c2.268 5.838 4.343 11.773 6.321 17.756.29.869 1.689.483 1.399-.386-1.978-5.983-4.053-11.869-6.32-17.756-.338-.82-1.737-.482-1.4.386z" fill="#E8E8E8"/><path d="M597.528 183.832a466.706 466.706 0 0016.839-12.255c.724-.579 0-1.834-.723-1.255-5.549 4.198-11.146 8.299-16.84 12.256-.772.531-.048 1.785.724 1.254z" fill="#E8E8E8"/><path d="M597.287 183.881a79.952 79.952 0 0019.059-3.185c.868-.241.53-1.64-.386-1.399-6.08 1.785-12.304 2.847-18.673 3.088-.917.096-.917 1.544 0 1.496z" fill="#E8E8E8"/><path d="M596.129 183.398c-3.86 4.97-7.672 9.94-11.532 14.909-.579.724.675 1.448 1.254.724 3.86-4.97 7.672-9.939 11.532-14.909.579-.724-.675-1.448-1.254-.724zM226.775 350.199c-1.206-.338-.482-1.93.048-2.461.579-.579 2.027-.531 2.799-.531 1.399-.048 2.798 0 4.246-.048 2.895 0 5.79-.048 8.685-.048 5.79-.049 11.58-.049 17.37-.097 11.435-.048 22.822-.145 34.257-.193 23.016-.145 45.983-.241 68.998-.289 45.837-.145 91.626-.145 137.464.096 12.545.097 25.138.097 37.683.627 6.224.242 12.449.628 18.673 1.207 3.088.289 6.224.627 9.312 1.013 1.013.145 2.027.241 3.04.434.82.145 1.303 0 1.592.772.772 1.834-1.689 3.715-3.184 3.812-.917.048-.917 1.496 0 1.447 3.232-.241 5.5-3.522 4.294-6.61-.097-.241-.241-.482-.483-.482-23.015-3.426-46.32-3.426-69.528-3.571-23.98-.145-47.912-.193-71.892-.241-48.057 0-96.163.193-144.22.434-13.51.097-27.019.145-40.529.241-3.233 0-6.418.049-9.65.049-2.702 0-5.887-.435-8.492.337-2.509.724-4.15 4.681-.869 5.597.869.145 1.255-1.254.386-1.495zM223.205 358.69c-4.825 17.419-10.712 34.547-17.708 51.242-.338.868 1.061 1.254 1.399.386 6.996-16.695 12.883-33.823 17.708-51.242.241-.916-1.158-1.302-1.399-.386z" fill="#E8E8E8"/><path d="M223.687 360.138c12.4 1.496 25.187.483 37.635.338.917 0 .917-1.448 0-1.448-12.448.193-25.235 1.158-37.635-.337-.965-.097-.917 1.351 0 1.447z" fill="#E8E8E8"/><path d="M259.778 360.379a1505.98 1505.98 0 01-13.028 45.259c-.289.916 1.11 1.254 1.4.386a1469.113 1469.113 0 0013.027-45.259c.241-.916-1.158-1.302-1.399-.386zM206.172 410.656l20.362-.145c3.329 0 6.61-.048 9.939-.048 2.944 0 5.887.096 8.782-.579.917-.193.531-1.593-.386-1.4-3.04.724-6.224.531-9.361.531-3.329 0-6.61.048-9.939.048-6.466.049-12.931.097-19.397.097-.917.048-.917 1.496 0 1.496zM267.353 360.717c32.617-.917 65.283-.869 97.9.193.916.048.916-1.399 0-1.448-32.617-1.061-65.283-1.158-97.9-.193-.917 0-.917 1.448 0 1.448zM266.002 369.209c18.914-.048 37.828-.048 56.79-.097.917 0 .917-1.447 0-1.447-18.914.048-37.828.048-56.79.097-.965 0-.965 1.447 0 1.447z" fill="#E8E8E8"/><path d="M246.557 408.967c.869-1.448 1.496-2.992 1.834-4.584.193-.917-1.206-1.303-1.399-.386-.338 1.496-.869 2.943-1.689 4.246-.483.772.772 1.496 1.254.724zM427.591 364.963a4491.617 4491.617 0 00-11.194 55.295c-.193.916 1.207 1.302 1.4.386a4491.617 4491.617 0 0111.194-55.295c.193-.917-1.207-1.303-1.4-.386z" fill="#E8E8E8"/><path d="M416.687 421.464c19.831.53 39.613 1.061 59.444 1.592 19.589.531 39.179 1.351 58.768 1.351.917 0 .917-1.448 0-1.448-19.589 0-39.179-.868-58.768-1.351-19.831-.53-39.613-1.061-59.444-1.592-.917-.048-.917 1.399 0 1.448z" fill="#E8E8E8"/><path d="M418.134 421.319c5.983-6.466 11.966-12.979 17.949-19.445h-1.013a26.563 26.563 0 006.996 6.128c.821.482 1.544-.772.724-1.255-2.605-1.544-4.825-3.522-6.707-5.886-.241-.29-.772-.241-1.013 0-5.983 6.465-11.966 12.979-17.949 19.445-.627.675.386 1.688 1.013 1.013z" fill="#E8E8E8"/><path d="M442.453 407.519c6.417-7.575 12.882-15.102 19.3-22.677.579-.724-.435-1.737-1.014-1.013-6.417 7.575-12.882 15.102-19.3 22.677-.627.676.386 1.689 1.014 1.013z" fill="#E8E8E8"/><path d="M460.739 384.118c1.303 1.737 2.606 3.426 3.908 5.163.29.386.724.482 1.158.145a339.543 339.543 0 0017.177-15.103c.676-.627-.337-1.64-1.013-1.013a339.96 339.96 0 01-17.177 15.102l1.158.145c-1.303-1.737-2.605-3.426-3.908-5.163-.627-.772-1.882-.048-1.303.724z" fill="#E8E8E8"/><path d="M481.438 374.951c8.058 6.369 15.826 13.075 23.353 20.023.676.628 1.689-.386 1.014-1.013a384.078 384.078 0 00-23.353-20.024c-.724-.579-1.737.435-1.014 1.014z" fill="#E8E8E8"/><path d="M505.66 394.781c9.939-6.32 17.08-16.067 26.779-22.725.772-.531.048-1.786-.724-1.255-9.698 6.659-16.839 16.405-26.779 22.726-.772.482-.048 1.737.724 1.254z" fill="#E8E8E8"/><path d="M523.995 373.551c3.04-.53 5.983-1.302 8.926-2.219l-.868-.869c-.531 2.413-1.014 4.825-1.544 7.238-.193.917 1.206 1.303 1.399.386.531-2.413 1.013-4.825 1.544-7.238.096-.53-.338-1.061-.869-.868-2.943.917-5.886 1.689-8.926 2.219-.916.145-.531 1.544.338 1.351zM445.348 368.775c-1.689 17.225-3.426 34.45-5.115 51.676-.096.916 1.351.916 1.448 0 1.688-17.226 3.425-34.451 5.114-51.676.048-.917-1.399-.917-1.447 0zM466.771 365.735a1425.59 1425.59 0 00-4.295 55.536c-.048.916 1.4.916 1.448 0a1425.585 1425.585 0 014.294-55.536c.048-.965-1.399-.917-1.447 0zM507.204 365.204c-1.882 19.3-3.233 38.6-4.053 57.997-.048.916 1.399.916 1.448 0 .82-19.349 2.171-38.697 4.053-57.997.096-.917-1.351-.917-1.448 0zM483.031 358.16l-3.764 64.51c-.048.917 1.399.917 1.448 0 1.254-21.52 2.509-42.991 3.763-64.51.049-.965-1.399-.965-1.447 0zM332.635 368.968c9.795.868 19.59-1.303 29.385-.097.916.097.916-1.351 0-1.447-9.795-1.207-19.59.965-29.385.096-.965-.048-.916 1.4 0 1.448zM180.696 281.925c17.081-2.509 33.534 4.342 48.685 11.483 14.04 6.659 27.936 13.462 43.521 15.44 33.293 4.15 65.186-9.843 96.5-18.672 18.383-5.163 37.442-8.782 56.597-6.369.917.096.917-1.351 0-1.448-33.919-4.294-65.957 9.988-97.899 18.818-16.212 4.487-33.003 7.864-49.89 6.754-16.936-1.109-31.845-7.961-46.948-15.15-15.874-7.575-32.954-14.861-50.952-12.207-.916.096-.482 1.496.386 1.351z" fill="#E8E8E8"/><path d="M272.082 295.097c42.508 2.268 81.88-16.695 122.555-25.814 11.724-2.605 23.642-4.439 35.705-4.68.916 0 .916-1.447 0-1.447-42.46.965-81.302 20.506-122.604 27.985-11.773 2.123-23.69 3.184-35.656 2.557-.917-.145-.917 1.302 0 1.399zM190.298 245.737c19.252 1.351 36.815 9.94 54.571 16.646 18.045 6.804 36.863 10.615 56.163 10.133 11.049-.29 22.05-1.882 32.761-4.68.917-.242.531-1.641-.385-1.4-19.445 5.115-39.855 6.08-59.686 2.654-18.914-3.281-35.946-11.532-53.847-17.949-9.553-3.426-19.396-6.128-29.577-6.803-.965-.097-.917 1.351 0 1.399zM321.2 152.952a36.598 36.598 0 01-1.882 7.093c-.193.483.29.917.676.917a1305.943 1305.943 0 0092.206.82c.917-.048.917-1.496 0-1.447-30.735.82-61.519.579-92.206-.821.241.29.482.628.675.917a35.709 35.709 0 001.882-7.093c.193-.916-1.206-1.302-1.351-.386z" fill="#E8E8E8"/><path d="M322.165 153.483l92.737 1.158c.917 0 .917-1.447 0-1.447l-92.737-1.158c-.917-.049-.917 1.399 0 1.447z" fill="#E8E8E8"/><path d="M414.757 153.773c-.965 2.267-1.689 4.632-2.075 7.092-.145.917 1.255 1.303 1.399.387.386-2.317 1.014-4.584 1.93-6.756.338-.868-.916-1.592-1.254-.723z" fill="#E8E8E8"/><path d="M72.954 430.679c-8.25 1.979-16.55 3.957-24.8 5.935 4.294 27.117 7.671 40.627 10.035 40.434 2.027-.145 3.33-10.278 3.909-30.398 4.584-1.592 9.167-3.136 13.751-4.728-.965-3.716-1.93-7.479-2.895-11.243z" fill="#161616" stroke="#161616" stroke-width="3" stroke-miterlimit="10"/><path d="M129.358 329.596a215.02 215.02 0 00-4.294 14.668c-3.426 13.365-3.571 19.058-7.045 36.042-4.149 20.217-6.272 23.691-7.623 25.669-6.128 8.782-14.62 12.787-19.252 14.958-11.194 5.259-21.616 5.742-27.792 5.5-.241 2.847-.482 9.795 3.667 16.791a27.14 27.14 0 006.417 7.334c6.225.338 16.936.097 28.999-4.583 5.162-1.979 18.335-7.286 28.371-20.458 7.72-10.133 9.843-20.024 12.207-31.122 4.584-21.374-1.11-24.607 4.584-42.749 3.425-11.001 7.382-16.405 4.583-20.458-3.329-4.97-13.799-3.667-22.822-1.592z" fill="#EC615B"/><path opacity=".09" d="M129.937 329.644a822.002 822.002 0 01-2.219 20.796c-.917 7.479-1.93 15.585-3.571 25.042-2.847 16.212-4.294 24.318-7.382 31.073-2.702 5.886-7.913 16.791-19.879 25.041-12.448 8.541-25.331 9.361-31.073 9.409a27.494 27.494 0 01-1.785-5.79c-.628-3.281-.628-6.128-.435-8.251 3.716.049 8.83-.241 14.765-1.544 10.325-2.316 17.225-6.513 19.01-7.623 4.391-2.75 8.975-5.597 12.738-11.194 2.558-3.764 3.619-7.189 5.356-14.33 2.557-10.519 3.86-15.73 4.922-23.45 1.158-8.926 3.715-21.954 9.553-39.179z" fill="#3D3D3D"/><path opacity=".12" d="M63.69 426.819c-.193 2.123-.29 5.018.386 8.348a30.436 30.436 0 001.882 6.079c6.61-1.399 27.406-6.707 40.289-25.717 3.811-5.645 6.079-11.194 7.478-15.971-1.302 3.04-3.57 7.479-7.575 11.773-6.9 7.382-14.813 10.084-20.506 12.014-4.825 1.689-12.352 3.619-21.954 3.474z" fill="#3D3D3D"/><path d="M125.836 474.973c-3.763 10.374-7.527 20.747-11.29 31.169 26.441 3.088 39.902 3.523 40.385 1.207.386-1.786-7.431-5.308-23.353-10.471 2.171-6.417 4.391-12.834 6.562-19.251-4.101-.869-8.203-1.786-12.304-2.654z" fill="#161616" stroke="#161616" stroke-width="3" stroke-miterlimit="10"/><path d="M165.063 335.096a345.79 345.79 0 01.917 28.371c-.241 31.7-4.536 55.488-5.79 61.953-3.233 16.936-8.83 38.793-18.914 63.208-3.185.144-11.049.048-18.914-4.874-4.825-3.039-7.817-6.706-9.457-9.167 2.943-5.597 6.562-12.979 10.084-22.002 6.224-15.923 8.926-28.612 10.663-36.96 3.909-18.769 5.887-28.129 4.295-38.165-1.544-9.506-4.053-11.146-3.667-19.252.096-1.785 1.302-22.581 14.33-26.538 6.707-1.978 13.365 1.496 16.453 3.426z" fill="#EC615B"/><path opacity=".14" d="M153.628 331.478c4.294 1.833 2.895 13.896 2.509 17.08-5.163 45.452 1.93 20.989-4.294 49.022-8.54 38.504-20.072 75.511-24.125 88.249-.965 0-2.316-.096-3.764-.772-1.351-.627-1.64-1.447-3.281-2.75-1.785-1.399-2.412-1.303-3.763-2.268-1.207-.868-2.702-2.412-3.764-5.259a224.237 224.237 0 008.54-18.866c3.86-9.65 5.983-16.984 8.299-24.897 0 0 7.238-24.945 8.541-44.004.241-3.812.048-6.417-.241-8.299-.435-2.991-1.062-4.487-2.027-8.057-.241-.917-1.592-6.128-2.026-10.036-1.207-11.532 4.921-20.796 7.816-24.125 1.013-1.207 2.364-2.51 4.294-3.523.724-.338 4.922-2.509 7.286-1.495z" fill="#3D3D3D"/><path opacity=".11" d="M142.579 409.98c-.821 11.725-3.571 15.199-11.58 44.004-3.523 12.642-6.128 23.015-7.817 29.674a19.447 19.447 0 01-4.777-2.75 19.426 19.426 0 01-5.018-5.79 203.307 203.307 0 008.782-20.893c1.254-3.474 2.075-6.127 2.847-8.54 11.001-35.271 12.738-45.982 13.268-53.316.435-6.224.097-11.242 0-12.835-.482-6.658-1.64-11.242-1.64-11.242s7.527 18.914 5.935 41.688z" fill="#3D3D3D"/><path d="M81.59 313.528c.097-.144.58-.096 1.545 0 1.64.145 2.171.386 3.233.483 1.013.048 2.364.145 2.75-.483.53-.82-1.158-2.412-3.522-5.838-4.053-5.79-3.86-7.816-3.523-8.733.097-.241.386-1.158 1.014-1.303.82-.193 1.736.917 2.605 2.027 1.448 1.785 2.027 3.184 2.171 3.088.29-.097-1.399-3.716-1.013-8.155.097-1.206.29-2.943 1.158-3.184.772-.241 1.93.724 2.847 2.268 0-.193.241-2.847 1.158-3.04.724-.145 1.544 1.254 2.364 2.605a15.631 15.631 0 011.351 2.799c-.048-1.351.675-2.461 1.689-2.799 1.11-.337 2.123.531 2.171.579 1.11 1.014 1.013 2.799 1.013 3.426-.096 2.75.193 7.382.821 14.137 1.254-.482 3.088-1.351 5.114-2.702 2.075-1.399 4.246-3.232 9.602-9.65 2.075-2.509 3.136-3.763 4.97-6.224 6.61-8.83 10.518-14.041 14.475-21.423 1.254-2.364 3.281-6.369 7.478-9.939 1.351-1.158 4.005-3.33 5.549-2.509 1.11.579 1.206 2.412 1.158 5.114-.048 5.887-.096 8.782-1.11 12.786-2.316 9.264-6.61 15.73-7.575 17.177-3.812 5.597-7.623 8.83-12.545 13.028-5.114 4.342-9.36 7.913-16.067 10.615-4.391 1.737-7.865 2.364-11.532 3.04-6.08 1.061-9.216 1.592-12.352.241-4.487-1.93-7.527-6.707-6.996-7.431z" fill="#fff"/><path d="M148.417 258.282c-5.211.724-8.299 5.597-11.097 9.602-3.571 5.115-6.948 10.374-10.422 15.537-3.474 5.211-7.093 10.325-11.194 15.102-1.979 2.268-4.005 4.487-6.225 6.513-2.46 2.316-5.162 4.97-8.395 6.08-.869.289-.483 1.689.386 1.399 5.066-1.689 9.36-6.514 12.883-10.325 4.053-4.391 7.671-9.168 11.097-14.089 3.474-5.018 6.803-10.181 10.181-15.247 3.184-4.729 6.948-12.304 13.172-13.172.917-.145.531-1.496-.386-1.4zM102.773 321.49c6.176-.579 11.387-3.426 16.549-6.707 5.115-3.233 9.988-6.948 14.331-11.194 5.597-5.404 10.325-11.821 13.461-19.011 3.088-7.189 4.536-15.053 3.523-22.87-.097-.917-1.544-.917-1.448 0 1.641 13.076-3.57 26.055-11.966 35.994-3.763 4.439-8.154 8.348-12.786 11.822-6.369 4.728-13.607 9.795-21.713 10.567-.868.048-.868 1.495.049 1.399z" fill="#000"/><path d="M102.773 319.994c-2.847-.048-5.597.627-8.396.82-3.233.241-5.935-.724-8.588-2.509-1.062-.724-2.22-1.592-2.895-2.75-1.4-2.461 1.495-1.013 2.508-.724 1.641.483 3.137.29 4.391-.82.724-.627-.338-1.641-1.013-1.013-2.171 1.93-6.224-2.365-7.672.096-1.11 1.882 1.448 4.584 2.702 5.597 2.171 1.785 4.825 3.233 7.672 3.571 3.764.434 7.527-.869 11.291-.772.916-.049.916-1.496 0-1.496z" fill="#000"/><path d="M89.89 313.191c-.965-3.233-3.136-5.742-4.874-8.589-.24-.386-3.136-5.645-2.17-6.079 1.688-.772 4.1 4.101 4.438 5.066.29.869 1.689.483 1.4-.386-.772-2.219-2.123-4.294-4.15-5.645-1.062-.724-2.606-1.255-3.088.386-.627 2.219 1.013 5.211 2.123 7.044 1.737 2.847 4.005 5.308 4.97 8.589.241.917 1.64.531 1.35-.386z" fill="#000"/><path d="M89.118 303.155c-.434-1.786-1.013-3.619-1.303-5.453a12.849 12.849 0 01-.145-3.329c.145-1.447.434-2.895 1.593-1.206 1.785 2.654 2.364 6.272 3.232 9.264.242.917 1.64.531 1.4-.386-.724-2.557-1.303-5.259-2.365-7.72-.53-1.206-1.737-3.908-3.425-3.908-1.737 0-1.786 2.702-1.882 3.908-.242 3.136.724 6.128 1.496 9.119.193 1.013 1.592.627 1.399-.289z" fill="#000"/><path d="M92.495 296.303c-.241-1.013-.724-2.702-.338-3.715.724-1.882 1.786 1.496 2.075 2.22 1.062 2.557 1.64 5.259 1.785 8.009.049.917 1.496.917 1.448 0-.193-2.654-.627-5.211-1.544-7.672-.53-1.495-1.303-4.149-2.75-4.969-3.281-1.882-2.365 5.355-2.123 6.561.241.869 1.64.483 1.447-.434z" fill="#000"/><path d="M97.368 297.992c-.048-.483-.385-3.088.194-3.571 1.592-1.399 2.026 1.158 2.219 1.93.338 1.641.29 3.474.434 5.163.242 3.474.483 6.9.724 10.374.048.917 1.496.917 1.448 0-.242-3.474-.483-6.9-.724-10.374-.145-2.412.048-5.597-1.206-7.768-.676-1.158-1.834-2.22-3.185-1.351-1.737 1.158-1.496 4.246-1.255 5.983.097.917 1.496.531 1.352-.386z" fill="#000"/><path opacity=".09" d="M148.948 259.971c-.241 0-.049 3.812-1.544 9.119-1.158 4.053-3.04 7.913-9.119 15.923-5.597 7.382-9.651 12.738-16.695 19.01-7.72 6.9-11.58 10.326-16.888 11.628-11.483 2.847-22.05-3.763-23.063-1.544-.53 1.207 2.364 3.619 3.474 4.439 1.4 1.014 4.101 2.606 10.47 2.702 6.804.097 12.014-1.544 13.172-1.93 12.256-4.053 20.314-12.062 24.608-16.501 5.693-5.79 10.326-10.518 13.365-18.431 4.874-12.304 2.702-24.415 2.22-24.415z" fill="#3D3D3D"/><path opacity=".13" d="M147.983 278.596c-.338-.193-2.365 3.184-5.26 7.189 0 0-6.948 9.65-15.922 17.852-4.921 4.488-13.896 11.436-28.13 16.888 2.944.193 7.334.096 12.208-1.544 1.544-.531 5.404-1.978 14.716-10.084 7.43-6.466 11.58-10.036 15.729-16.309 4.488-6.707 7.141-13.751 6.659-13.992z" fill="#3D3D3D"/><path d="M154.014 252.975c-3.04 1.061-4.921 2.943-6.9 4.921-5.5 5.549-7.478 11.821-9.022 16.888-4.632 15.247-6.997 22.822-8.058 29.48-1.255 7.576-2.316 17.612-1.978 29.481 2.509 1.737 6.079 3.957 10.615 5.887 5.211 2.219 9.891 4.197 15.922 3.715 2.413-.193 6.562-.868 11.194-3.715.241-3.137.772-8.01 2.171-13.751 2.413-10.181 5.018-13.125 9.264-25.766 3.329-9.988 4.97-15.102 4.729-21.23-.193-4.294-.579-12.69-6.9-19.252-4.825-4.97-13.462-9.312-21.037-6.658z" fill="#fff"/><path d="M151.843 253.313c-5.79 3.474-9.312 9.264-12.207 15.198-3.088 6.418-5.404 13.173-7.093 20.121-3.522 14.475-4.391 29.48-4.97 44.341-.048.917 1.399.917 1.448 0 .53-14.185 1.351-28.419 4.535-42.315 1.544-6.803 3.667-13.51 6.61-19.879 2.847-6.224 6.369-12.642 12.401-16.212.772-.483.048-1.737-.724-1.254zM170.516 256.449c5.452 4.246 9.215 10.229 10.422 17.032 1.351 7.768-.531 15.681-3.137 22.967-2.509 7.045-5.79 13.751-8.057 20.892-2.268 6.997-3.667 14.282-4.246 21.616-.097.917 1.351.917 1.447 0 .676-8.25 2.413-16.405 5.211-24.173 2.654-7.43 6.176-14.523 8.444-22.099 2.026-6.803 3.088-14.185 1.399-21.23-1.496-6.369-5.259-12.014-10.422-15.97-.772-.628-1.785.386-1.061.965z" fill="#000"/><path d="M127.862 333.938c5.839 5.211 13.076 8.637 20.845 9.747 6.176.868 14.137.916 18.19-4.632.53-.772-.724-1.496-1.255-.724-4.053 5.5-13.027 4.777-18.914 3.57-6.658-1.351-12.786-4.487-17.852-8.974-.676-.627-1.689.386-1.014 1.013z" fill="#000"/><path opacity=".11" d="M160.238 253.168c1.641 2.846-4.439 8.106-9.119 16.308-2.991 5.211-4.149 9.747-6.417 18.818-5.308 21.23-4.295 45.355-3.86 52.351-4.15-2.22-8.251-4.391-12.4-6.61.193-4.729.578-11.484 1.35-19.59 1.255-12.834 1.979-19.831 4.44-28.902 2.171-7.864 4.294-15.198 10.084-23.063a54.06 54.06 0 0110.663-10.856c1.834-.097 4.391.048 5.259 1.544z" fill="#3D3D3D"/><path opacity=".15" d="M141.807 267.739c.627.193-1.93 10.277-6.031 32.569-2.702 14.62-3.33 19.879-1.158 26.393 2.798 8.347 8.443 13.413 7.382 14.523-.676.675-3.571-.29-13.558-7.768-.242-10.519.434-25.042 4.632-41.688 3.329-13.173 8.057-24.27 8.733-24.029z" fill="#3D3D3D"/><path d="M186.824 233.289c2.268 2.074 1.978 6.127 1.544 12.014-.29 4.101-.434 6.176-1.833 8.154-2.895 4.101-9.458 5.983-14.62 3.667-.628-.289-3.812-1.785-5.549-5.404-2.509-5.211.097-10.422.627-11.387 4.053-7.575 15.778-10.808 19.831-7.044z" fill="#5222D0"/><path d="M186.921 206.606c1.833.386 2.943 2.944 5.162 8.106a55.645 55.645 0 013.137 9.65c.627 2.944.965 5.453 1.109 7.334-1.302.386-2.605.724-3.908 1.11-.289 1.689-.917 4.198-2.171 6.996-1.737 3.86-3.185 7.19-6.562 8.734-3.908 1.785-8.106.193-9.505-.483-.531 1.351-1.303 2.895-2.316 4.536-.724 1.158-1.496 2.123-2.172 2.943-4.39 1.11-6.417-.048-7.189-.627-4.053-2.992-3.715-12.642 2.509-23.546a29.514 29.514 0 00-1.544-2.172c-1.399-1.737-1.882-1.785-2.509-2.798-.193-.29-1.689-2.847-.482-5.163.579-1.11 1.785-2.075 3.136-2.171 1.64-.145 2.171 1.158 3.57 1.544 2.413.724 5.067-1.882 11.677-8.106 5.549-5.211 6.658-6.176 8.058-5.887z" fill="#fff"/><path d="M191.553 214.519c2.267 5.694 3.715 11.629 4.246 17.756.048.676 1.158.676 1.109 0a62.744 62.744 0 00-4.294-18.045c-.241-.676-1.303-.386-1.061.289z" fill="#000"/><path d="M196.088 231.793c-1.303.145-2.605.338-3.908.482-.676.097-.676 1.158 0 1.11 1.303-.145 2.605-.338 3.908-.482.676-.145.676-1.207 0-1.11z" fill="#000"/><path d="M191.89 232.758c-.868 4.825-2.846 9.505-6.079 13.22-3.86 4.536-9.988 2.172-14.716.242-.628-.29-.917.772-.29 1.061 4.439 1.834 10.808 4.343 14.813.483 3.956-3.764 6.32-9.409 7.285-14.717.145-.675-.868-.965-1.013-.289z" fill="#000"/><path d="M173.459 248.295c-1.013 2.316-2.268 4.487-3.715 6.562-.386.579.53 1.109.916.53a40.064 40.064 0 003.715-6.562c.29-.627-.627-1.158-.916-.53z" fill="#000"/><path d="M170.709 247.426c.723.772 1.544 1.447 2.46 1.93.628.338 1.158-.579.531-.917a9.047 9.047 0 01-2.268-1.785c-.434-.531-1.206.241-.723.772zM187.5 222.384c-.29-.579-.242-1.303.144-1.785-.289-.097-.627-.145-.916-.241.144.82.144 1.592.096 2.412l.531-.531a.996.996 0 00.193.29c.145-.676-.917-.965-1.062-.29-.144.579.242 1.11.869 1.11.338 0 .531-.241.531-.531.096-.916.048-1.785-.097-2.702-.048-.386-.675-.53-.917-.241-.723.917-.868 2.075-.289 3.088.289.579 1.254.048.917-.579zM184.605 215.87c.675-1.688 2.605-2.171 4.101-1.206.579.386 1.11-.579.531-.917-2.123-1.399-4.729-.482-5.694 1.834-.241.675.82.965 1.062.289zM182.385 224.555h-.627c-.048-.096-.049-.193-.097-.289.097-.338.242-.434.531-.338l.193.193v-.048c-.145-.241-.483-.338-.724-.193-.241.145-.338.482-.193.724.193.241.483.386.772.337.29-.096.531-.337.531-.675 0-.724-1.013-.917-1.351-.338-.145.241-.048.579.193.724.289.241.627.145.772-.097zM184.798 226.775c-.097.096-.242.241-.386.338h.048-.29s-.048 0-.048-.049l-.193-.193v.049c0-.145-.048-.29-.048-.435l.144-.144c-.241.193-.337.482-.193.723.145.242.531.386.724.193.338-.241.579-.723.193-1.061-.144-.145-.386-.241-.627-.145-.241.048-.338.193-.434.434-.097.29.096.579.386.676a.58.58 0 00.724-.386zM180.986 226.823h-.097c-.675 0-.724 1.11 0 1.11h.097c.724 0 .724-1.11 0-1.11zM185.328 233.964c.772 2.364 1.979 4.487 4.391 5.404.627.241.917-.772.29-1.061-1.979-.772-2.992-2.751-3.619-4.681-.241-.627-1.255-.337-1.062.338z" fill="#000"/><path d="M185.183 234.543c.29-.434.773-.675 1.352-.772.289-.048.434-.434.386-.675-.097-.338-.386-.435-.676-.386-.82.096-1.496.579-1.978 1.254-.435.579.482 1.158.916.579zM164.677 228.271c-2.943 1.061-4.535-3.474-4.004-5.597.289-1.11 1.061-2.413 2.219-2.751 1.592-.482 3.04.772 4.053 1.737.483.483 1.255-.289.772-.772-1.303-1.254-2.895-2.46-4.825-2.074-1.737.337-2.799 1.978-3.233 3.57-.772 2.943 1.593 8.251 5.308 6.948.675-.241.386-1.303-.29-1.061z" fill="#000"/><path d="M183.109 207.668c-.579.675-1.448 1.785-2.461 3.233-3.667 5.355-3.329 7.527-5.887 9.071-1.978 1.206-5.018 1.592-7.334.627-1.737-.724-2.219-1.834-3.715-1.785-1.64.048-3.184 1.399-3.812 2.991-.772 1.882 0 3.619.531 4.729.483 1.013 1.158 2.509 2.606 2.846.916.193 1.737-.144 2.171-.386-.048.531-.145 1.351-.193 2.365-.241 4.197.241 7.092.434 8.974.483 4.536.917 8.154-.434 11.58-2.075 5.115-7.238 7.382-9.119 8.203-8.01 3.522-15.44.579-16.454.145-1.592-.676-9.215-3.812-11.097-10.953-1.158-4.294.145-8.637.675-10.471.242-.772.869-2.702 2.123-4.921 2.751-4.922 6.707-7.913 9.457-9.602a75.645 75.645 0 015.163-13.558c3.04-6.176 4.729-9.602 8.589-12.786 6.127-5.067 13.075-5.694 15.343-5.839 1.158-.096 6.852-.434 13.607 2.316 4.776 1.93 10.373 4.246 12.689 9.988 2.654 6.707-1.109 13.365-1.833 14.62-.193-.82-.579-2.075-1.399-3.281-1.207-1.785-2.558-2.509-4.584-3.908-1.303-1.014-3.04-2.316-5.066-4.198z" fill="#5222D0"/><path d="M163.23 255.339c2.074 1.206 4.487 1.496 6.803.724.868-.29.482-1.689-.386-1.4-1.93.628-3.908.435-5.694-.579-.82-.434-1.544.821-.723 1.255z" fill="#000"/><path opacity=".14" d="M160.962 226.485c.386 1.11 1.399 1.882 2.509 2.027a3.11 3.11 0 003.04-1.496c-.241 1.592-.483 4.825 1.013 8.396 2.027 4.921 5.983 7.237 7.72 8.25 4.246 2.413 8.299 2.558 10.277 2.509-.434.772-1.399 2.027-3.039 2.847-3.909 1.93-8.01-.675-8.251-.82a30.443 30.443 0 01-3.04 5.211c-1.206 1.64-1.689 2.026-2.026 2.171-2.316 1.351-5.356-.048-6.225-.482a24.738 24.738 0 01-4.197 3.184c-1.544.917-5.694 3.329-11.436 3.378 0 0-7.72 0-13.944-5.211-2.412-2.027-3.426-3.812-3.715-4.391-.241-.483-1.255-2.413-1.496-5.549-.531-6.031 2.075-11.146 3.522-13.462 2.606-4.149 5.935-6.61 8.058-7.913-.145.531-1.93 8.01 2.027 11.629 4.969 4.487 16.212.241 18.672-6.225.628-1.592.628-3.088.531-4.053z" fill="#3D3D3D"/><path opacity=".07" d="M166.848 239.851c-.386.193.531 2.702 1.4 4.487 1.399 2.943 3.136 5.114 4.391 6.417.337-.868.675-1.737 1.013-2.557a12.916 12.916 0 009.891.096c-7.43-.144-11.194-2.412-13.269-4.487-1.688-1.689-3.04-4.149-3.426-3.956z" fill="#3D3D3D"/><path d="M286.701 195.316c-.675-.386-.82-1.303-.916-1.93-.338-2.268 1.351-4.101 1.64-4.487 1.786-1.979 2.799-.965 4.488-2.799 1.254-1.351 1.158-2.461 3.088-4.246 1.254-1.206 1.688-1.061 1.785-1.013.675.289.096 1.785.772 4.101.579 1.93 1.303 1.93 1.544 3.571.048.434.386 2.605-.917 3.86-.579.579-1.351.723-2.943 1.013-1.834.338-2.075.145-3.329.386-3.04.579-4.102 2.171-5.212 1.544z" fill="#fff"/><path d="M286.557 193.289c-7.286 7.527-14.572 15.103-21.857 22.63-.917 1.061-.965 2.653-.145 3.715.917 1.158 2.557 1.447 3.86.627 7.479-8.685 14.909-17.418 22.388-26.103-1.4-.29-2.799-.579-4.246-.869zM260.212 234.495c.242.627-.53 1.93-4.728 4.728-1.207-.241-2.22-.916-2.413-1.785-.289-1.447 1.785-2.654 2.702-3.088 1.689-.772 4.102-.724 4.439.145z" fill="#000"/><path d="M175.341 254.374c-2.606.579-7.19 1.689-9.313 5.452-1.399 2.461-1.109 5.067-1.013 5.983.483 4.102 3.329 7.527 6.562 9.023 3.957 1.785 8.058.434 10.133-.29 18.045-6.224 27.068-9.312 30.735-11.145 10.615-5.356 22.436-11.387 35.898-22.581a165.588 165.588 0 008.154-7.286c.772.434 2.509 1.254 4.584 1.013 1.688-.193 2.798-.965 4.439-2.123 1.158-.82 2.509-1.785 3.715-3.57 1.158-1.689 1.544-3.185 1.882-4.439.338-1.4 1.013-3.909.145-4.439-.628-.386-1.303.675-2.992.723-.145 0-2.22 0-3.136-1.302-.869-1.207.048-2.316-.724-3.281-.82-1.062-2.943-.965-4.294-.579-3.137.965-4.632 4.439-5.597 6.272-2.654 5.259-6.466 8.106-13.559 13.462-5.5 4.149-10.421 6.079-17.032 8.733a98.88 98.88 0 01-14.137 4.584c-11.049 2.605-19.782 2.509-34.45 5.79z" fill="#fff"/><path d="M167.428 259.344c4.969-4.97 12.786-5.163 19.348-6.08 7.672-1.061 15.343-2.219 22.87-4.005 13.365-3.088 26.634-8.25 37.104-17.321 2.751-2.413 5.308-5.067 7.431-8.106 1.93-2.751 5.597-10.857 10.132-6.997.724.579 1.737-.434 1.014-1.013-1.737-1.496-4.053-1.592-6.08-.579-2.847 1.448-4.149 4.632-5.838 7.189-4.391 6.659-11.049 11.773-17.901 15.682-14.427 8.202-31.024 11.145-47.236 13.51-7.334 1.061-16.212 1.158-21.809 6.706-.724.628.289 1.641.965 1.014z" fill="#000"/><path d="M166.366 257.607c-3.233 5.5-2.605 12.786 2.799 16.694 6.465 4.68 15.536.241 22.146-2.026a199.649 199.649 0 0044.246-21.809c7.671-5.018 14.957-10.615 21.857-16.646.724-.628-.338-1.641-1.013-1.014-21.665 18.914-47.961 33.872-75.849 41.35-4.777 1.303-9.747 1.014-12.835-3.329-2.702-3.715-2.364-8.637-.096-12.448.482-.821-.773-1.544-1.255-.772z" fill="#000"/><path d="M270.345 218.958c.241 1.11.482 2.316.386 3.474-.193 1.593-.965 2.123-1.544 3.426-.241.579-.29 1.158-.483 1.737-.386 1.303-.916 1.592-1.833 2.364-1.013.821-1.592 1.786-2.461 2.702-1.399 1.496-2.219 1.014-3.956.821-1.255-.145-2.558-.338-3.812-.483-.917-.096-.917 1.351 0 1.448 2.075.289 5.597 1.495 7.527.482.772-.386 1.206-1.11 1.689-1.785.627-.869 1.206-1.592 2.171-2.075.482-.241.724-.048 1.158-.434.531-.434.675-1.158.82-1.785.338-1.544.82-2.558 1.496-3.909 1.013-1.978.675-4.197.241-6.272-.193-1.013-1.592-.627-1.399.289z" fill="#000"/><path d="M264.41 216.256c-1.11 1.641-.241 4.005 1.496 4.777 2.026.917 4.294-.434 5.307-2.219.483-.821-.772-1.544-1.254-.724-.627 1.11-1.93 2.123-3.233 1.689-1.158-.338-1.785-1.786-1.061-2.799.482-.772-.772-1.496-1.255-.724z" fill="#000"/><path d="M265.327 216.932a1215.68 1215.68 0 0021.568-23.015c.627-.676-.386-1.737-1.014-1.014a1212.494 1212.494 0 01-21.568 23.016c-.675.627.338 1.688 1.014 1.013zM271.165 218.476c6.948-8.009 13.848-16.019 20.796-24.028.627-.724-.435-1.737-1.014-1.014-6.948 8.01-13.847 16.019-20.795 24.029-.627.724.386 1.737 1.013 1.013zM259.633 234.302c-.917.917-1.833 1.882-2.75 2.798-.289.29-.724.917-1.062 1.11-1.206.628-1.833-.579-2.267-1.351-.483-.82-1.737-.096-1.255.724.724 1.206 1.93 2.75 3.522 2.268.869-.241 1.496-1.11 2.075-1.737.917-.917 1.834-1.882 2.751-2.799.675-.675-.387-1.689-1.014-1.013z" fill="#000"/><path d="M291.575 194.255c2.895 1.302 6.417.53 7.913-2.461.724-1.448.772-3.185.241-4.68-.917-2.413-4.246-4.536-1.303-7.045.724-.627-.337-1.64-1.013-1.013-1.689 1.447-2.171 3.667-1.061 5.597 1.061 1.882 2.75 2.943 2.219 5.404-.579 2.895-3.667 4.101-6.224 2.943-.917-.386-1.641.869-.772 1.255z" fill="#000"/><path d="M286.798 192.662c.29-2.123 1.061-3.522 2.943-4.583.965-.531 1.979-.965 2.847-1.641 1.785-1.447 2.316-4.101 4.439-5.163.82-.434.097-1.64-.724-1.254-1.206.579-1.93 1.496-2.605 2.654-1.062 1.688-2.027 2.798-3.812 3.715-2.895 1.496-4.101 2.991-4.536 6.272-.096.917 1.351.917 1.448 0z" fill="#000"/><path d="M286.557 194.061c1.351-.53 2.75-.337 3.908.531.724.579 1.448-.675.724-1.254-1.448-1.11-3.378-1.351-5.066-.676-.821.338-.435 1.737.434 1.399z" fill="#000"/><path d="M291.334 187.403c1.881-.627 3.811-.675 5.741-.193.917.241 1.303-1.158.386-1.399-2.171-.531-4.39-.483-6.513.193-.869.289-.483 1.689.386 1.399z" fill="#5222D0"/><path d="M290.513 187.403c3.523-1.496 4.584-5.597 7.865-7.43l-.868-1.158c-2.509 2.267-.29 5.355.337 7.864.338-.289.724-.53 1.062-.82-1.834-.772-3.667-1.11-5.645-.965.193.386.434.724.627 1.11.675-1.303 1.496-2.461 2.412-3.619-.386-.241-.82-.482-1.206-.724-.386 1.014-.868 2.268-.675 3.33.048.289.386.53.675.53 1.158-.048 1.448-1.64 1.834-2.509-.435-.144-.917-.241-1.351-.386.096.724.337 1.593.241 2.365.096-.193.241-.435.338-.628-.338.193-1.641.049-2.22.193-.965.193-1.785.531-2.654 1.014-.627.337-.337 1.399.386 1.351 1.207-.097 2.413-.242 3.619-.338.917-.097.917-1.544 0-1.448-1.206.097-2.412.242-3.619.338.145.434.242.917.386 1.351 1.014-.531 2.123-.917 3.281-.965.435-.048 1.11.145 1.496-.145.869-.627.29-2.123.193-3.039-.096-.628-1.013-1.11-1.351-.386-.048.144-.82 1.785-.579 1.785.241.193.483.338.676.531-.145-.724.434-1.93.675-2.558.241-.675-.772-1.254-1.206-.723a24.225 24.225 0 00-2.654 3.908c-.241.434.048 1.158.627 1.11 1.737-.145 3.33.096 4.922.772.579.241 1.254-.145 1.061-.821-.482-1.93-2.605-4.776-.723-6.465.627-.579-.193-1.544-.869-1.158-3.233 1.833-4.391 5.935-7.865 7.43-.82.435-.048 1.641.772 1.303z" fill="#5222D0"/><path d="M297.558 178.477c-2.027 1.254-3.281 3.136-4.777 4.921-.917 1.11-1.93 1.786-2.943 2.751-.386.337-.724.53-.724 1.061 0 .097.048.241.193.29 3.04 1.302 6.417-2.172 9.409.289.193.145.434.145.579-.096.868-1.255-1.062-2.461-1.785-3.233-.242-.241-.724 0-.628.338.145.482.097.434.435.82.289.386.916 0 .627-.386-.097-.241-.241-.434-.338-.676-.193.097-.386.242-.627.338.338.338 2.123 1.737 1.689 2.364.193-.048.386-.048.579-.096-1.014-.82-2.172-1.206-3.523-1.158-.772.048-1.544.193-2.316.338-.627.144-1.206.289-1.833.337-.676.097-1.496.483-.965-.434.289-.482 1.158-.917 1.544-1.303a14.903 14.903 0 001.592-1.881c1.255-1.544 2.413-3.088 4.101-4.15.483-.048.097-.675-.289-.434z" fill="#5222D0"/><path d="M290.127 187.741c1.448.193 2.847-.29 4.294-.483 1.207-.145 2.172.048 3.281.434.628.242 1.014.386 1.689.29.241-.048.386-.193.338-.434-.097-.628-.241-.965-.579-1.496-.241-.386-.869 0-.627.386.337.386.482.82.53 1.303.097-.145.242-.29.338-.435-1.351.145-2.702-.82-4.101-.82-1.641.048-3.329.82-4.97.579-.482-.096-.675.579-.193.676zM296.979 179.731c.241-.338.531-.627.917-.82.096-.048.434-.29.53-.193.145.096-.241.386-.337.434-.579.483-.965 1.11-1.255 1.785-.193.435.531.628.676.193.289-.675.772-1.109 1.302-1.64.338-.29.531-.724.193-1.158-.723-.965-2.123.289-2.605.917-.241.337.289.868.579.482z" fill="#5222D0"/><path d="M298.619 178.139a3.847 3.847 0 00-1.64 2.316c-.097.434.579.627.675.193.193-.772.627-1.399 1.303-1.882.434-.289.048-.917-.338-.627z" fill="#5222D0"/><path d="M166.945 259.247c1.544-3.039 7.141-4.197 10.229-4.583.917-.145.531-1.544-.386-1.4-3.474.483-9.312 1.834-11.098 5.26-.386.82.869 1.592 1.255.723z" fill="#000"/><path opacity=".13" d="M165.305 266.244c4.342-.29 10.663-.869 18.142-2.316 21.423-4.102 36.67-12.063 45.982-16.984 7.72-4.102 17.949-10.23 29.191-19.059 4.922-1.593 7.961-3.764 9.891-5.501 1.303-1.158 2.268-2.316 2.751-2.075.772.435-.435 4.439-2.075 7.334-1.448 2.606-3.137 4.102-3.667 4.584-1.351 1.158-2.123 1.979-3.426 2.316-2.412.628-4.584-.675-5.307-1.158-1.786 1.4-4.391 3.474-7.624 5.935-13.027 9.891-19.589 14.861-28.226 19.589-7.961 4.343-14.62 6.949-27.599 11.967-1.206.482-2.799 1.013-5.983 2.074-8.492 2.847-10.519 3.185-12.883 2.751-.965-.193-3.329-.628-5.5-2.509-2.847-2.558-3.474-5.839-3.667-6.948z" fill="#3D3D3D"/><path opacity=".19" d="M203.567 266.581c-.097-.145.723-.82 18.817-12.304 23.836-15.15 22.147-13.799 24.656-15.633 10.422-7.72 15.054-12.931 17.467-11.387 1.64 1.062 1.93 4.922.144 6.611-1.544 1.495-4.776 1.351-7.671-.772-5.839 5.211-14.524 12.303-25.959 19.493-13.51 8.347-27.117 14.571-27.454 13.992z" fill="#3D3D3D"/></svg>