<svg width="32" height="32" viewBox="0 0 32 32" fill="none" xmlns="http://www.w3.org/2000/svg">
<rect width="32" height="32" fill="#EEEEEE"/>
<path d="M16.0544 31.9973C19.3995 32.0027 27.4292 31.9973 27.4292 31.9973C27.4292 31.9973 27.4292 25.5372 22.4328 25.5372C17.4364 25.5372 14.1092 25.5372 9.194 25.5372C4.27881 25.5372 4.27881 31.9973 4.27881 31.9973C4.27881 31.9973 12.5349 32.0033 16.0544 31.9973Z" fill="#438141"/>
<path d="M15.8723 22.7126C20.4359 22.7126 24.1353 19.0131 24.1353 14.4496C24.1353 9.88611 20.4359 6.18665 15.8723 6.18665C11.3088 6.18665 7.60938 9.88611 7.60938 14.4496C7.60938 19.0131 11.3088 22.7126 15.8723 22.7126Z" fill="#333333"/>
<path opacity="0.1" d="M13.2056 21.332H18.5001V25.5677C18.5001 26.2697 18.2213 26.9429 17.7251 27.4393C17.2288 27.9357 16.5558 28.2147 15.8538 28.215V28.215C15.1517 28.215 14.4784 27.9361 13.9819 27.4396C13.4855 26.9432 13.2066 26.2698 13.2066 25.5677V21.332H13.2056Z" fill="black"/>
<path d="M13.3736 21.1356H18.3344C18.379 21.1356 18.4217 21.1533 18.4531 21.1848C18.4846 21.2163 18.5023 21.259 18.5023 21.3035V25.3713C18.5024 25.7191 18.4339 26.0635 18.3008 26.3848C18.1678 26.7061 17.9727 26.998 17.7268 27.2439C17.4808 27.4898 17.1889 27.6848 16.8675 27.8178C16.5462 27.9508 16.2018 28.0192 15.854 28.0191V28.0191C15.1519 28.0191 14.4786 27.7402 13.9822 27.2437C13.4857 26.7473 13.2068 26.0739 13.2068 25.3718V21.3035C13.2068 21.2591 13.2243 21.2166 13.2556 21.1851C13.2869 21.1537 13.3293 21.1359 13.3736 21.1356V21.1356Z" fill="#FDB797"/>
<path opacity="0.1" d="M13.2151 23.3315C14.9215 23.969 16.7998 23.9741 18.5096 23.346V22.6946H13.2151V23.3315Z" fill="black"/>
<path d="M15.8725 23.6857C20.0637 23.6857 23.4615 20.288 23.4615 16.0967C23.4615 11.9054 20.0637 8.50769 15.8725 8.50769C11.6812 8.50769 8.28345 11.9054 8.28345 16.0967C8.28345 20.288 11.6812 23.6857 15.8725 23.6857Z" fill="#FDB797"/>
<path opacity="0.1" d="M10.4668 9.19368C10.4668 9.19368 13.6653 15.6858 22.6874 11.9156L20.5868 8.62193L16.8632 7.28552L10.4668 9.19368Z" fill="black"/>
<path d="M10.4668 9.09848C10.4668 9.09848 13.6653 15.5906 22.6874 11.8194L20.5868 8.52574L16.8632 7.18933L10.4668 9.09848Z" fill="#333333"/>
<path d="M10.4387 8.65852C10.6544 7.99093 11.0271 7.38484 11.5256 6.89118C13.0183 5.41547 15.4656 5.10429 16.7209 3.42163C17.0215 3.88865 16.789 4.60671 16.2699 4.80714C17.4725 4.79913 18.866 4.6939 19.546 3.70475C19.7141 4.09596 19.7676 4.52684 19.7005 4.94729C19.6333 5.36774 19.4482 5.7605 19.1667 6.07991C20.2325 6.13002 21.3715 6.85159 21.4386 7.9164C21.4847 8.62595 21.0377 9.29741 20.457 9.70429C19.8762 10.1112 19.1687 10.2981 18.4747 10.4509C16.4483 10.8984 9.11633 12.771 10.4387 8.65852Z" fill="#333333"/>
<path d="M8.2805 17.4135C8.67043 17.4135 8.98654 16.8208 8.98654 16.0896C8.98654 15.3585 8.67043 14.7657 8.2805 14.7657C7.89057 14.7657 7.57446 15.3585 7.57446 16.0896C7.57446 16.8208 7.89057 17.4135 8.2805 17.4135Z" fill="#FDB797"/>
<path d="M23.4604 17.4135C23.8504 17.4135 24.1665 16.8208 24.1665 16.0896C24.1665 15.3585 23.8504 14.7657 23.4604 14.7657C23.0705 14.7657 22.7544 15.3585 22.7544 16.0896C22.7544 16.8208 23.0705 17.4135 23.4604 17.4135Z" fill="#FDB797"/>
</svg>
