<?xml version="1.0" standalone="no"?>
<!DOCTYPE svg PUBLIC "-//W3C//DTD SVG 20010904//EN"
 "http://www.w3.org/TR/2001/REC-SVG-20010904/DTD/svg10.dtd">
<svg version="1.0" xmlns="http://www.w3.org/2000/svg"
 width="700.000000pt" height="700.000000pt" viewBox="0 0 700.000000 700.000000"
 preserveAspectRatio="xMidYMid meet">
<metadata>
Created by potrace 1.11, written by Peter Selinger 2001-2013
</metadata>
<g transform="translate(0.000000,700.000000) scale(0.100000,-0.100000)"
fill="#000000" stroke="none">
<path d="M3745 6209 c-72 -13 -137 -44 -335 -159 -107 -62 -215 -124 -240
-138 -25 -14 -85 -48 -135 -77 -49 -29 -106 -62 -125 -73 -19 -11 -336 -194
-705 -407 -369 -213 -714 -413 -768 -444 -54 -31 -105 -61 -115 -66 -9 -6 -57
-33 -107 -61 -49 -28 -152 -88 -229 -133 -76 -44 -140 -81 -142 -81 -17 0
-190 -118 -227 -156 -91 -91 -145 -242 -133 -373 17 -179 108 -310 286 -409
30 -16 165 -94 300 -172 135 -79 270 -156 300 -173 30 -17 102 -58 160 -92 58
-34 342 -199 633 -366 l527 -304 0 -660 c0 -710 0 -703 53 -816 31 -64 117
-157 182 -194 64 -38 142 -63 213 -68 67 -5 187 15 234 39 15 8 274 157 575
331 302 174 607 350 678 391 72 41 216 124 320 185 263 152 255 147 305 175
25 14 74 42 109 64 34 21 64 38 66 38 2 0 39 21 82 46 43 26 94 56 113 67 137
77 588 338 645 373 93 57 158 124 199 206 71 140 71 292 2 433 -64 129 -94
151 -567 424 -233 135 -534 308 -669 386 -135 78 -353 204 -485 280 -132 76
-284 164 -337 194 l-98 56 0 652 c0 436 -4 670 -11 705 -35 166 -172 316 -335
363 -63 18 -163 25 -219 14z m-337 -1219 c42 -22 262 -147 487 -278 l410 -237
0 -1065 c0 -1020 -1 -1067 -19 -1120 -33 -94 -69 -150 -138 -214 -43 -40 -90
-71 -135 -91 -62 -27 -78 -29 -183 -30 -147 0 -149 1 -535 225 -165 95 -311
180 -325 187 -14 7 -81 46 -150 86 l-125 73 -1 1043 c-1 573 3 1066 8 1094 5
29 24 84 43 122 119 246 413 337 663 205z"/>
</g>
</svg>
