<svg version="1.0" xmlns="http://www.w3.org/2000/svg" width="933.333" height="933.333" viewBox="0 0 700 700"><path d="M374.5 79.1c-7.2 1.3-13.7 4.4-33.5 15.9-10.7 6.2-21.5 12.4-24 13.8-2.5 1.4-8.5 4.8-13.5 7.7-4.9 2.9-10.6 6.2-12.5 7.3-1.9 1.1-33.6 19.4-70.5 40.7-36.9 21.3-71.4 41.3-76.8 44.4-5.4 3.1-10.5 6.1-11.5 6.6-.9.6-5.7 3.3-10.7 6.1-4.9 2.8-15.2 8.8-22.9 13.3-7.6 4.4-14 8.1-14.2 8.1-1.7 0-19 11.8-22.7 15.6-9.1 9.1-14.5 24.2-13.3 37.3 1.7 17.9 10.8 31 28.6 40.9 3 1.6 16.5 9.4 30 17.2 13.5 7.9 27 15.6 30 17.3 3 1.7 10.2 5.8 16 9.2 5.8 3.4 34.2 19.9 63.3 36.6l52.7 30.4v66c0 71 0 70.3 5.3 81.6 3.1 6.4 11.7 15.7 18.2 19.4 6.4 3.8 14.2 6.3 21.3 6.8 6.7.5 18.7-1.5 23.4-3.9 1.5-.8 27.4-15.7 57.5-33.1 30.2-17.4 60.7-35 67.8-39.1 7.2-4.1 21.6-12.4 32-18.5 26.3-15.2 25.5-14.7 30.5-17.5 2.5-1.4 7.4-4.2 10.9-6.4 3.4-2.1 6.4-3.8 6.6-3.8.2 0 3.9-2.1 8.2-4.6 4.3-2.6 9.4-5.6 11.3-6.7 13.7-7.7 58.8-33.8 64.5-37.3 9.3-5.7 15.8-12.4 19.9-20.6 7.1-14 7.1-29.2.2-43.3-6.4-12.9-9.4-15.1-56.7-42.4-23.3-13.5-53.4-30.8-66.9-38.6-13.5-7.8-35.3-20.4-48.5-28-13.2-7.6-28.4-16.4-33.7-19.4l-9.8-5.6v-65.2c0-43.6-.4-67-1.1-70.5-3.5-16.6-17.2-31.6-33.5-36.3-6.3-1.8-16.3-2.5-21.9-1.4zM340.8 201c4.2 2.2 26.2 14.7 48.7 27.8l41 23.7V359c0 102-.1 106.7-1.9 112-3.3 9.4-6.9 15-13.8 21.4-4.3 4-9 7.1-13.5 9.1-6.2 2.7-7.8 2.9-18.3 3-14.7 0-14.9-.1-53.5-22.5-16.5-9.5-31.1-18-32.5-18.7-1.4-.7-8.1-4.6-15-8.6l-12.5-7.3-.1-104.3c-.1-57.3.3-106.6.8-109.4.5-2.9 2.4-8.4 4.3-12.2 11.9-24.6 41.3-33.7 66.3-20.5z"/></svg>
