<svg width="260" height="260" viewBox="0 0 260 260" fill="none" xmlns="http://www.w3.org/2000/svg">
<path fill-rule="evenodd" clip-rule="evenodd" d="M233.103 167.046C245.057 160.144 245.057 142.89 233.103 135.989L160.034 93.8023L126.862 74.6502C114.908 67.7485 99.9653 76.3755 99.9653 90.1789V90.1789C99.9653 76.3756 114.908 67.7486 126.862 74.6502L160.034 93.8023L160.034 169.821C160.034 183.625 145.092 192.252 133.138 185.35L99.9653 166.198V212.856C99.9653 226.659 114.908 235.286 126.862 228.385L233.103 167.046Z" fill="#D462E7"/>
<path fill-rule="evenodd" clip-rule="evenodd" d="M233.103 167.046C245.057 160.144 245.057 142.89 233.103 135.989L160.034 93.8023L126.862 74.6502C114.908 67.7485 99.9653 76.3755 99.9653 90.1789V90.1789C99.9653 76.3756 114.908 67.7486 126.862 74.6502L160.034 93.8023L160.034 169.821C160.034 183.625 145.092 192.252 133.138 185.35L99.9653 166.198V212.856C99.9653 226.659 114.908 235.286 126.862 228.385L233.103 167.046Z" fill="url(#paint0_linear)"/>
<path fill-rule="evenodd" clip-rule="evenodd" d="M26.8964 92.9541C14.9423 99.8558 14.9423 117.11 26.8963 124.012L99.9654 166.198V90.1789C99.9654 76.3756 114.908 67.7485 126.862 74.6502L160.034 93.8023L160.034 47.1444C160.034 33.3411 145.092 24.714 133.138 31.6156L26.8964 92.9541Z" fill="#6DA3F3"/>
<path fill-rule="evenodd" clip-rule="evenodd" d="M26.8964 92.9541C14.9423 99.8558 14.9423 117.11 26.8963 124.012L99.9654 166.198V90.1789C99.9654 76.3756 114.908 67.7485 126.862 74.6502L160.034 93.8023L160.034 47.1444C160.034 33.3411 145.092 24.714 133.138 31.6156L26.8964 92.9541Z" fill="url(#paint1_linear)"/>
<defs>
<linearGradient id="paint0_linear" x1="86.0688" y1="102.705" x2="230.231" y2="177.432" gradientUnits="userSpaceOnUse">
<stop stop-color="#6DA3F3"/>
<stop offset="1" stop-color="#D462E7"/>
</linearGradient>
<linearGradient id="paint1_linear" x1="35.8619" y1="69.9311" x2="161.379" y2="161.379" gradientUnits="userSpaceOnUse">
<stop stop-color="#3ADCB5"/>
<stop offset="0.713542" stop-color="#7BB0FF"/>
</linearGradient>
</defs>
</svg>
